# xmcd
#
# Track frame offsets:
#	150
#	12160
#	24155
#	38287
#	53490
#	66035
#	78195
#	91340
#	102292
#	118392
#	132790
#	146772
#	161742
#	175175
#	188957
#	218982
#
# Disc length: 2932 seconds
#
# Revision: 1
# Processed by: cddbd v1.5.1PL2 Copyright (c) Steve Scherf et al.
# Submitted via: audiograbber 1.83.01
#
DISCID=cc0b7210
DTITLE=Sound Choice - SC8365
DYEAR=1900
DGENRE=
TTITLE0=Jennings, Wayon - Theme From The Dukes Of Hazzard
TTITLE1=Jennings, Waylon - Only Daddy That'll Walk The...
TTITLE2=Haggard, Merle - Swinging Doors
TTITLE3=Haggard, Merle - Branded Man
TTITLE4=Jones, George - Tender Years
TTITLE5=Jones, George - Why Baby Why
TTITLE6=Haggard, Merle - I Take A Lot Of Pride In What......
TTITLE7=Jennings, Waylon - The Wurlitzer Prize
TTITLE8=Jones, George - Who's Gonna Fill Their Shoes
TTITLE9=Jones, George - The Window Up Above
TTITLE10=Jones, George - Still Doin' Time
TTITLE11=Haggard, Merle - The Fugitive
TTITLE12=Jennings, Waylon - Rainy Day Woman
TTITLE13=Haggard, Merle - Sing Me Back Home
TTITLE14=Jennings, Waylon - Lucille
TTITLE15=Data Track - Data Track
EXTD=
EXTT0=
EXTT1=
EXTT2=
EXTT3=
EXTT4=
EXTT5=
EXTT6=
EXTT7=
EXTT8=
EXTT9=
EXTT10=
EXTT11=
EXTT12=
EXTT13=
EXTT14=
EXTT15=
PLAYORDER=
